# xmcd CD database file
#
# Track frame offsets:
#	150
#	10518
#	21848
#	36515
#	48895
#	58868
#	73560
#	86800
#	105823
#	127183
#	137428
#	156220
#	175008
#	185678
#	203103
#	216960
#	230713
#
# Disc length: 3336 seconds
#
# Revision: 3
# Processed by: cddbd v1.4PL0 Copyright (c) Steve Scherf et al.
# Submitted via: CDex 1.50Beta7
#
DISCID=eb0d0611
DTITLE=Al Hirt - Jazzin' the Pops
DYEAR=1989
DGENRE=Jazz
TTITLE0=Spanish Eyes
TTITLE1=Unforgettable
TTITLE2=East of the Sun
TTITLE3=I'll be Seeing You
TTITLE4=Red Roses for a Blue Lady
TTITLE5=Java
TTITLE6=Poor Butterfly
TTITLE7=Stardust
TTITLE8=Birth of the Blues
TTITLE9=Sugar Blues
TTITLE10=New Orleans
TTITLE11=Echoes of Harlem
TTITLE12=Strangers in the Night
TTITLE13=Trumpeter's Lullaby
TTITLE14=Imagination
TTITLE15=Deep Purple
TTITLE16=When the Saints Go Marching In
EXTD=Submitted By WinSkol\nJohn Dankworth conductor - clarinet /saxes\nRochester Pops\nProJazz CDJ 687 YEAR: 1989
EXTT0=
EXTT1=
EXTT2=
EXTT3=
EXTT4=
EXTT5=
EXTT6=
EXTT7=
EXTT8=
EXTT9=
EXTT10=
EXTT11=
EXTT12=
EXTT13=
EXTT14=
EXTT15=
EXTT16=
PLAYORDER=
